<svg width="74" height="74" viewBox="0 0 74 74" fill="none" xmlns="http://www.w3.org/2000/svg">
<path d="M4.77952 5.24159C2.31285 8.17076 4.77952 19.1166 8.17119 19.7333C10.3295 20.1958 10.6379 19.4249 9.71286 15.1083L8.78786 10.0208L16.4962 17.1124C31.2962 30.9874 38.542 32.5291 45.017 23.1249C47.3295 19.7333 51.0295 16.6499 53.1879 16.0333C61.5129 13.8749 64.5962 23.5874 56.7337 27.2874C53.1879 29.1374 52.8795 30.0624 53.4962 35.1499C54.5754 43.1666 51.9545 48.8708 45.4795 52.7249C38.8504 56.5791 40.2379 60.1249 47.1754 56.8874C53.342 53.8041 57.3504 47.4833 58.2754 39.1583C59.0462 31.1416 61.2045 28.5208 68.2962 26.6708L72.4587 25.4374L65.8295 18.0374C58.2754 9.86659 53.8045 8.94159 47.4837 13.7208L43.6295 16.8041L36.8462 9.86659C27.9045 0.770756 26.0545 0.770756 23.8962 10.3291C23.1254 14.3374 23.4337 15.4166 25.1295 15.4166C26.3629 15.4166 27.7504 13.8749 28.367 11.8708C29.1379 8.63326 29.4462 8.63326 34.842 14.1833C40.8545 20.0416 41.1629 24.6666 35.6129 24.6666C32.5295 24.6666 20.6587 15.8791 13.2587 7.86242C8.17119 2.46659 7.24619 2.15826 4.77952 5.24159Z" fill="white"/>
<path d="M3.0835 25.2833C3.0835 26.3624 4.31683 28.9833 5.8585 30.9874C7.55433 32.9916 9.25016 36.6916 9.86683 39.1583C10.4835 41.9333 12.4877 44.0916 15.1085 45.0166L19.271 46.5583L13.5668 52.7249C3.85433 62.7458 6.47516 72.4583 18.6543 72.4583C23.4335 72.4583 25.9002 71.3791 29.446 67.9874C34.2252 63.0541 35.6127 55.4999 31.6043 55.4999C30.371 55.4999 29.2918 56.8874 29.2918 58.5833C29.2918 63.6708 23.5877 68.1416 18.0377 67.5249C10.021 66.7541 10.7918 61.9749 20.0418 53.3416C28.521 45.3249 29.1377 41.6249 21.8918 41.6249C16.8043 41.6249 13.8752 39.1583 13.8752 34.6874C13.8752 32.9916 12.4877 30.6791 10.7918 29.5999C9.096 28.5208 7.7085 26.6708 7.7085 25.4374C7.7085 24.2041 6.62933 23.1249 5.396 23.1249C4.16266 23.1249 3.0835 24.0499 3.0835 25.2833Z" fill="white"/>
</svg>
